<svg xmlns="http://www.w3.org/2000/svg" version="1.1" xmlns:xlink="http://www.w3.org/1999/xlink" xmlns:svgjs="http://svgjs.dev/svgjs" width="1000" height="623" viewBox="0 0 1000 623"><g transform="matrix(1,0,0,1,-0.6060606060606233,0.2522267206477409)"><svg viewBox="0 0 396 247" data-background-color="#ffffff" preserveAspectRatio="xMidYMid meet" height="623" width="1000" xmlns="http://www.w3.org/2000/svg" xmlns:xlink="http://www.w3.org/1999/xlink"><g id="tight-bounds" transform="matrix(1,0,0,1,0.2400000000000091,-0.09999999999999432)"><svg viewBox="0 0 395.52 247.2" height="247.2" width="395.52"><g><svg></svg></g><g><svg viewBox="0 0 395.52 247.2" height="247.2" width="395.52"><g transform="matrix(1,0,0,1,75.54432,49.65978149934239)"><svg viewBox="0 0 244.43135999999998 147.88043700131522" height="147.88043700131522" width="244.43135999999998"><g><svg viewBox="0 0 244.43135999999998 147.88043700131522" height="147.88043700131522" width="244.43135999999998"><g><svg viewBox="0 0 244.43135999999998 147.88043700131522" height="147.88043700131522" width="244.43135999999998"><g><svg viewBox="0 0 244.43135999999998 147.88043700131522" height="147.88043700131522" width="244.43135999999998"><g id="textblocktransform"><svg viewBox="0 0 244.43135999999998 147.88043700131522" height="147.88043700131522" width="244.43135999999998" id="textblock"><g><svg viewBox="0 0 244.43135999999998 147.88043700131522" height="147.88043700131522" width="244.43135999999998"><g transform="matrix(1,0,0,1,0,0)"><svg width="244.43135999999998" viewBox="4.659999847412109 -33.08000183105469 55.689998626708984 33.69000244140625" height="147.88043700131522" data-palette-color="#f59e0b"><path d="M12.11 0.61L12.11 0.61Q8.15 0.61 4.66-0.02L4.66-0.02 4.66-32.69Q7.89-33.08 12.15-33.08 16.41-33.08 19.86-31.92 23.32-30.76 25.63-28.61L25.63-28.61Q30.32-24.32 30.32-16.58L30.32-16.58Q30.32-7.91 25.1-3.42L25.1-3.42Q20.41 0.61 12.11 0.61ZM11.01-27.1L11.01-5.35Q12.6-5.05 14.18-5.05 15.77-5.05 17.6-5.68 19.43-6.3 20.78-7.62L20.78-7.62Q23.66-10.4 23.66-15.72L23.66-15.72Q23.66-24.46 17.29-26.46L17.29-26.46Q15.19-27.12 12.43-27.12L12.43-27.12 11.77-27.12Q11.4-27.12 11.01-27.1L11.01-27.1ZM52.05-33.08L52.05-33.08Q56.61-33.08 59.84-31.49L59.84-31.49 59.84-24.02 59.79-23.97Q58.42-26.07 54.03-26.76L54.03-26.76Q52.73-26.98 50.75-26.98 48.78-26.98 46.87-26.23 44.97-25.49 43.75-24.12L43.75-24.12Q41.38-21.46 41.38-16.53L41.38-16.53Q41.38-10.79 44.38-7.98L44.38-7.98Q46.87-5.64 50.97-5.64L50.97-5.64Q55.61-5.64 58.49-7.62L58.49-7.62Q59.54-8.33 60.28-9.38L60.28-9.38 60.35-9.33 60.35-2.49Q56.61 0.61 50.29 0.61L50.29 0.61Q42.84 0.61 38.62-4.13L38.62-4.13Q34.57-8.64 34.57-16.09L34.57-16.09Q34.57-23.97 39.01-28.52L39.01-28.52Q43.5-33.08 52.05-33.08Z" opacity="1" transform="matrix(1,0,0,1,0,0)" fill="#f59e0b" class="wordmark-text-0" data-fill-palette-color="primary" id="text-0"></path></svg></g></svg></g></svg></g></svg></g></svg></g></svg></g></svg></g><path d="M256.054 43.66L256.054 0.787 10.429 0.787 10.429 246.413 256.054 246.413 256.054 203.54 242.718 203.54 242.718 233.077 23.765 233.077 23.765 14.123 242.718 14.123 242.718 43.66Z" fill="#f59e0b" stroke="transparent" data-fill-palette-color="primary"></path></svg></g><defs></defs></svg><rect width="395.52" height="247.2" fill="none" stroke="none" visibility="hidden"></rect></g></svg></g></svg>