<svg width="1000" height="623" viewBox="0 0 1000 623" fill="none" xmlns="http://www.w3.org/2000/svg">
<g clip-path="url(#clip0_118_2)">
<g clip-path="url(#clip1_118_2)">
<g clip-path="url(#clip2_118_2)">
<g clip-path="url(#clip3_118_2)">
<g clip-path="url(#clip4_118_2)">
<g clip-path="url(#clip5_118_2)">
<g clip-path="url(#clip6_118_2)">
<g clip-path="url(#clip7_118_2)">
<g clip-path="url(#clip8_118_2)">
<g clip-path="url(#clip9_118_2)">
<path d="M273.609 498.236C244.383 498.236 216.891 495.911 191.133 491.262V129.586C214.972 126.707 242.612 125.268 274.052 125.268C305.493 125.268 333.944 129.549 359.406 138.11C384.942 146.671 406.235 158.886 423.284 174.754C457.898 206.416 475.205 250.809 475.205 307.933C475.205 371.921 455.942 420.484 417.416 453.622C382.802 483.365 334.866 498.236 273.609 498.236ZM261.432 191.47V432.256C273.166 434.47 284.864 435.577 296.525 435.577C308.26 435.577 320.881 433.252 334.387 428.602C347.893 424.026 359.628 416.867 369.591 407.125C390.847 386.608 401.475 356.717 401.475 317.454C401.475 252.949 377.968 213.316 330.955 198.555C315.456 193.684 297.522 191.249 277.152 191.249H269.845C267.114 191.249 264.31 191.323 261.432 191.47ZM715.769 125.268C749.423 125.268 778.17 131.136 802.009 142.87V225.568L801.455 226.121C791.344 210.622 770.088 200.327 737.688 195.234C728.094 193.611 715.99 192.799 701.377 192.799C686.837 192.799 672.519 195.566 658.423 201.102C644.4 206.563 632.887 214.349 623.883 224.461C606.391 244.092 597.645 272.101 597.645 308.486C597.645 350.85 608.716 382.401 630.857 403.14C649.234 420.41 673.553 429.045 703.812 429.045C738.057 429.045 765.808 421.739 787.063 407.125C794.813 401.885 801.418 395.39 806.88 387.641L807.654 388.195V463.917C780.052 486.797 742.928 498.236 696.284 498.236C641.3 498.236 598.236 480.745 567.091 445.762C537.2 412.476 522.255 368.341 522.255 313.357C522.255 255.2 538.639 209.331 571.408 175.75C604.546 142.095 652.666 125.268 715.769 125.268Z" fill="white"/>
</g>
</g>
</g>
</g>
</g>
</g>
</g>
<path d="M646.427 110.122V1.98511H26.8951V621.519H646.427V513.382H612.79V587.883H60.5321V35.6221H612.79V110.122H646.427Z" fill="white"/>
</g>
</g>
</g>
<defs>
<clipPath id="clip0_118_2">
<rect width="1000" height="623" fill="white"/>
</clipPath>
<clipPath id="clip1_118_2">
<rect width="1000" height="623" fill="white" transform="translate(-0.606079 0.252197)"/>
</clipPath>
<clipPath id="clip2_118_2">
<rect width="997.607" height="623.504" fill="white" transform="translate(0.590393)"/>
</clipPath>
<clipPath id="clip3_118_2">
<rect width="616.521" height="372.994" fill="white" transform="translate(191.133 125.255)"/>
</clipPath>
<clipPath id="clip4_118_2">
<rect width="616.521" height="372.994" fill="white" transform="translate(191.133 125.255)"/>
</clipPath>
<clipPath id="clip5_118_2">
<rect width="616.521" height="372.994" fill="white" transform="translate(191.133 125.255)"/>
</clipPath>
<clipPath id="clip6_118_2">
<rect width="616.521" height="372.994" fill="white" transform="translate(191.133 125.255)"/>
</clipPath>
<clipPath id="clip7_118_2">
<rect width="616.521" height="372.994" fill="white" transform="translate(191.133 125.255)"/>
</clipPath>
<clipPath id="clip8_118_2">
<rect width="616.521" height="372.994" fill="white" transform="translate(191.133 125.255)"/>
</clipPath>
<clipPath id="clip9_118_2">
<rect width="616.521" height="372.994" fill="white" transform="translate(191.133 125.255)"/>
</clipPath>
</defs>
</svg>
